<?xml version="1.0" encoding="UTF-8" standalone="no"?>
<!DOCTYPE svg PUBLIC "-//W3C//DTD SVG 1.1//EN"
 "http://www.w3.org/Graphics/SVG/1.1/DTD/svg11.dtd">
<!-- Generated by graphviz version 2.47.3 (20210619.1520)
 -->
<!-- Title: dependencies Pages: 1 -->
<svg width="358pt" height="174pt"
 viewBox="0.00 0.00 358.00 173.80" xmlns="http://www.w3.org/2000/svg" xmlns:xlink="http://www.w3.org/1999/xlink">
<g id="graph0" class="graph" transform="scale(1 1) rotate(0) translate(4 169.8)">
<title>dependencies</title>
<polygon fill="white" stroke="transparent" points="-4,4 -4,-169.8 354,-169.8 354,4 -4,4"/>
<text text-anchor="middle" x="175" y="-8.2" font-family="sans-serif" font-size="14.00">dependencies</text>
<g id="clust1" class="cluster">
<title>cluster_SubscriptionsModule</title>
<polygon fill="none" stroke="black" stroke-dasharray="1,5" points="8,-32.8 8,-157.8 342,-157.8 342,-32.8 8,-32.8"/>
</g>
<g id="clust3" class="cluster">
<title>cluster_SubscriptionsModule_imports</title>
<polygon fill="none" stroke="black" points="226,-40.8 226,-92.8 334,-92.8 334,-40.8 226,-40.8"/>
</g>
<g id="clust6" class="cluster">
<title>cluster_SubscriptionsModule_providers</title>
<polygon fill="none" stroke="black" points="16,-40.8 16,-92.8 218,-92.8 218,-40.8 16,-40.8"/>
</g>
<!-- StripeModule -->
<g id="node1" class="node">
<title>StripeModule</title>
<polygon fill="#8dd3c7" stroke="black" points="326.49,-84.8 323.49,-88.8 302.49,-88.8 299.49,-84.8 233.51,-84.8 233.51,-48.8 326.49,-48.8 326.49,-84.8"/>
<text text-anchor="middle" x="280" y="-62.6" font-family="Times,serif" font-size="14.00">StripeModule</text>
</g>
<!-- SubscriptionsModule -->
<g id="node2" class="node">
<title>SubscriptionsModule</title>
<polygon fill="#8dd3c7" stroke="black" points="258.77,-149.8 255.77,-153.8 234.77,-153.8 231.77,-149.8 123.23,-149.8 123.23,-113.8 258.77,-113.8 258.77,-149.8"/>
<text text-anchor="middle" x="191" y="-127.6" font-family="Times,serif" font-size="14.00">SubscriptionsModule</text>
</g>
<!-- StripeModule&#45;&gt;SubscriptionsModule -->
<g id="edge1" class="edge">
<title>StripeModule&#45;&gt;SubscriptionsModule</title>
<path fill="none" stroke="black" d="M246.19,-84.91C246.19,-84.91 246.19,-103.79 246.19,-103.79"/>
<polygon fill="black" stroke="black" points="242.7,-103.79 246.19,-113.79 249.7,-103.79 242.7,-103.79"/>
</g>
<!-- SubscriptionsService -->
<g id="node3" class="node">
<title>SubscriptionsService</title>
<ellipse fill="#fdb462" stroke="black" cx="117" cy="-66.8" rx="92.63" ry="18"/>
<text text-anchor="middle" x="117" y="-62.6" font-family="Times,serif" font-size="14.00">SubscriptionsService</text>
</g>
<!-- SubscriptionsService&#45;&gt;SubscriptionsModule -->
<g id="edge2" class="edge">
<title>SubscriptionsService&#45;&gt;SubscriptionsModule</title>
<path fill="none" stroke="black" d="M166.34,-82.2C166.34,-82.2 166.34,-103.74 166.34,-103.74"/>
<polygon fill="black" stroke="black" points="162.84,-103.74 166.34,-113.74 169.84,-103.74 162.84,-103.74"/>
</g>
</g>
</svg>
