<?xml version="1.0" encoding="UTF-8" standalone="no"?>
<!DOCTYPE svg PUBLIC "-//W3C//DTD SVG 1.1//EN"
 "http://www.w3.org/Graphics/SVG/1.1/DTD/svg11.dtd">
<!-- Generated by graphviz version 2.47.3 (20210619.1520)
 -->
<!-- Title: dependencies Pages: 1 -->
<svg width="484pt" height="174pt"
 viewBox="0.00 0.00 484.00 173.80" xmlns="http://www.w3.org/2000/svg" xmlns:xlink="http://www.w3.org/1999/xlink">
<g id="graph0" class="graph" transform="scale(1 1) rotate(0) translate(4 169.8)">
<title>dependencies</title>
<polygon fill="white" stroke="transparent" points="-4,4 -4,-169.8 480,-169.8 480,4 -4,4"/>
<text text-anchor="middle" x="238" y="-8.2" font-family="sans-serif" font-size="14.00">dependencies</text>
<g id="clust1" class="cluster">
<title>cluster_StripeWebhookModule</title>
<polygon fill="none" stroke="black" stroke-dasharray="1,5" points="8,-32.8 8,-157.8 468,-157.8 468,-32.8 8,-32.8"/>
</g>
<g id="clust3" class="cluster">
<title>cluster_StripeWebhookModule_imports</title>
<polygon fill="none" stroke="black" points="242,-40.8 242,-92.8 460,-92.8 460,-40.8 242,-40.8"/>
</g>
<g id="clust6" class="cluster">
<title>cluster_StripeWebhookModule_providers</title>
<polygon fill="none" stroke="black" points="16,-40.8 16,-92.8 234,-92.8 234,-40.8 16,-40.8"/>
</g>
<!-- StripeModule -->
<g id="node1" class="node">
<title>StripeModule</title>
<polygon fill="#8dd3c7" stroke="black" points="452.49,-84.8 449.49,-88.8 428.49,-88.8 425.49,-84.8 359.51,-84.8 359.51,-48.8 452.49,-48.8 452.49,-84.8"/>
<text text-anchor="middle" x="406" y="-62.6" font-family="Times,serif" font-size="14.00">StripeModule</text>
</g>
<!-- StripeWebhookModule -->
<g id="node3" class="node">
<title>StripeWebhookModule</title>
<polygon fill="#8dd3c7" stroke="black" points="369.92,-149.8 366.92,-153.8 345.92,-153.8 342.92,-149.8 222.08,-149.8 222.08,-113.8 369.92,-113.8 369.92,-149.8"/>
<text text-anchor="middle" x="296" y="-127.6" font-family="Times,serif" font-size="14.00">StripeWebhookModule</text>
</g>
<!-- StripeModule&#45;&gt;StripeWebhookModule -->
<g id="edge1" class="edge">
<title>StripeModule&#45;&gt;StripeWebhookModule</title>
<path fill="none" stroke="black" d="M364.61,-84.91C364.61,-84.91 364.61,-103.79 364.61,-103.79"/>
<polygon fill="black" stroke="black" points="361.11,-103.79 364.61,-113.79 368.11,-103.79 361.11,-103.79"/>
</g>
<!-- UsersModule -->
<g id="node2" class="node">
<title>UsersModule</title>
<polygon fill="#8dd3c7" stroke="black" points="341.92,-84.8 338.92,-88.8 317.92,-88.8 314.92,-84.8 250.08,-84.8 250.08,-48.8 341.92,-48.8 341.92,-84.8"/>
<text text-anchor="middle" x="296" y="-62.6" font-family="Times,serif" font-size="14.00">UsersModule</text>
</g>
<!-- UsersModule&#45;&gt;StripeWebhookModule -->
<g id="edge2" class="edge">
<title>UsersModule&#45;&gt;StripeWebhookModule</title>
<path fill="none" stroke="black" d="M296,-84.91C296,-84.91 296,-103.79 296,-103.79"/>
<polygon fill="black" stroke="black" points="292.5,-103.79 296,-113.79 299.5,-103.79 292.5,-103.79"/>
</g>
<!-- StripeWebhookService -->
<g id="node4" class="node">
<title>StripeWebhookService</title>
<ellipse fill="#fdb462" stroke="black" cx="125" cy="-66.8" rx="100.7" ry="18"/>
<text text-anchor="middle" x="125" y="-62.6" font-family="Times,serif" font-size="14.00">StripeWebhookService</text>
</g>
<!-- StripeWebhookService&#45;&gt;StripeWebhookModule -->
<g id="edge3" class="edge">
<title>StripeWebhookService&#45;&gt;StripeWebhookModule</title>
<path fill="none" stroke="black" d="M225.86,-66.8C233.29,-66.8 237.95,-66.8 237.95,-66.8 237.95,-66.8 237.95,-103.69 237.95,-103.69"/>
<polygon fill="black" stroke="black" points="234.45,-103.69 237.95,-113.69 241.45,-103.69 234.45,-103.69"/>
</g>
</g>
</svg>
