<?xml version="1.0" encoding="UTF-8" standalone="no"?>
<!DOCTYPE svg PUBLIC "-//W3C//DTD SVG 1.1//EN"
 "http://www.w3.org/Graphics/SVG/1.1/DTD/svg11.dtd">
<!-- Generated by graphviz version 2.47.3 (20210619.1520)
 -->
<!-- Title: dependencies Pages: 1 -->
<svg width="743pt" height="174pt"
 viewBox="0.00 0.00 743.00 173.80" xmlns="http://www.w3.org/2000/svg" xmlns:xlink="http://www.w3.org/1999/xlink">
<g id="graph0" class="graph" transform="scale(1 1) rotate(0) translate(4 169.8)">
<title>dependencies</title>
<polygon fill="white" stroke="transparent" points="-4,4 -4,-169.8 739,-169.8 739,4 -4,4"/>
<text text-anchor="middle" x="367.5" y="-8.2" font-family="sans-serif" font-size="14.00">dependencies</text>
<g id="clust1" class="cluster">
<title>cluster_PostsModule</title>
<polygon fill="none" stroke="black" stroke-dasharray="1,5" points="8,-32.8 8,-157.8 727,-157.8 727,-32.8 8,-32.8"/>
</g>
<g id="clust6" class="cluster">
<title>cluster_PostsModule_providers</title>
<polygon fill="none" stroke="black" points="248,-40.8 248,-92.8 719,-92.8 719,-40.8 248,-40.8"/>
</g>
<g id="clust3" class="cluster">
<title>cluster_PostsModule_imports</title>
<polygon fill="none" stroke="black" points="16,-40.8 16,-92.8 240,-92.8 240,-40.8 16,-40.8"/>
</g>
<!-- SearchModule -->
<g id="node1" class="node">
<title>SearchModule</title>
<polygon fill="#8dd3c7" stroke="black" points="231.64,-84.8 228.64,-88.8 207.64,-88.8 204.64,-84.8 134.36,-84.8 134.36,-48.8 231.64,-48.8 231.64,-84.8"/>
<text text-anchor="middle" x="183" y="-62.6" font-family="Times,serif" font-size="14.00">SearchModule</text>
</g>
<!-- PostsModule -->
<g id="node3" class="node">
<title>PostsModule</title>
<polygon fill="#8dd3c7" stroke="black" points="360.61,-149.8 357.61,-153.8 336.61,-153.8 333.61,-149.8 271.39,-149.8 271.39,-113.8 360.61,-113.8 360.61,-149.8"/>
<text text-anchor="middle" x="316" y="-127.6" font-family="Times,serif" font-size="14.00">PostsModule</text>
</g>
<!-- SearchModule&#45;&gt;PostsModule -->
<g id="edge1" class="edge">
<title>SearchModule&#45;&gt;PostsModule</title>
<path fill="none" stroke="black" d="M183,-84.82C183,-102.17 183,-125.8 183,-125.8 183,-125.8 261.34,-125.8 261.34,-125.8"/>
<polygon fill="black" stroke="black" points="261.34,-129.3 271.34,-125.8 261.34,-122.3 261.34,-129.3"/>
</g>
<!-- UsersModule -->
<g id="node2" class="node">
<title>UsersModule</title>
<polygon fill="#8dd3c7" stroke="black" points="115.92,-84.8 112.92,-88.8 91.92,-88.8 88.92,-84.8 24.08,-84.8 24.08,-48.8 115.92,-48.8 115.92,-84.8"/>
<text text-anchor="middle" x="70" y="-62.6" font-family="Times,serif" font-size="14.00">UsersModule</text>
</g>
<!-- UsersModule&#45;&gt;PostsModule -->
<g id="edge2" class="edge">
<title>UsersModule&#45;&gt;PostsModule</title>
<path fill="none" stroke="black" d="M70,-85.08C70,-106.12 70,-137.8 70,-137.8 70,-137.8 261.17,-137.8 261.17,-137.8"/>
<polygon fill="black" stroke="black" points="261.17,-141.3 271.17,-137.8 261.17,-134.3 261.17,-141.3"/>
</g>
<!-- PostsLoaders -->
<g id="node4" class="node">
<title>PostsLoaders</title>
<ellipse fill="#fdb462" stroke="black" cx="648" cy="-66.8" rx="62.56" ry="18"/>
<text text-anchor="middle" x="648" y="-62.6" font-family="Times,serif" font-size="14.00">PostsLoaders</text>
</g>
<!-- PostsLoaders&#45;&gt;PostsModule -->
<g id="edge3" class="edge">
<title>PostsLoaders&#45;&gt;PostsModule</title>
<path fill="none" stroke="black" d="M648,-85.08C648,-106.12 648,-137.8 648,-137.8 648,-137.8 370.77,-137.8 370.77,-137.8"/>
<polygon fill="black" stroke="black" points="370.78,-134.3 360.77,-137.8 370.77,-141.3 370.78,-134.3"/>
</g>
<!-- PostsSearchService -->
<g id="node5" class="node">
<title>PostsSearchService</title>
<ellipse fill="#fdb462" stroke="black" cx="481" cy="-66.8" rx="86.81" ry="18"/>
<text text-anchor="middle" x="481" y="-62.6" font-family="Times,serif" font-size="14.00">PostsSearchService</text>
</g>
<!-- PostsSearchService&#45;&gt;PostsModule -->
<g id="edge4" class="edge">
<title>PostsSearchService&#45;&gt;PostsModule</title>
<path fill="none" stroke="black" d="M481,-84.82C481,-102.17 481,-125.8 481,-125.8 481,-125.8 370.65,-125.8 370.65,-125.8"/>
<polygon fill="black" stroke="black" points="370.65,-122.3 360.65,-125.8 370.65,-129.3 370.65,-122.3"/>
</g>
<!-- PostsService -->
<g id="node6" class="node">
<title>PostsService</title>
<ellipse fill="#fdb462" stroke="black" cx="316" cy="-66.8" rx="60.27" ry="18"/>
<text text-anchor="middle" x="316" y="-62.6" font-family="Times,serif" font-size="14.00">PostsService</text>
</g>
<!-- PostsService&#45;&gt;PostsModule -->
<g id="edge5" class="edge">
<title>PostsService&#45;&gt;PostsModule</title>
<path fill="none" stroke="black" d="M316,-84.91C316,-84.91 316,-103.79 316,-103.79"/>
<polygon fill="black" stroke="black" points="312.5,-103.79 316,-113.79 319.5,-103.79 312.5,-103.79"/>
</g>
</g>
</svg>
