<?xml version="1.0" encoding="UTF-8" standalone="no"?>
<!DOCTYPE svg PUBLIC "-//W3C//DTD SVG 1.1//EN"
 "http://www.w3.org/Graphics/SVG/1.1/DTD/svg11.dtd">
<!-- Generated by graphviz version 2.47.3 (20210619.1520)
 -->
<!-- Title: dependencies Pages: 1 -->
<svg width="278pt" height="174pt"
 viewBox="0.00 0.00 278.00 173.80" xmlns="http://www.w3.org/2000/svg" xmlns:xlink="http://www.w3.org/1999/xlink">
<g id="graph0" class="graph" transform="scale(1 1) rotate(0) translate(4 169.8)">
<title>dependencies</title>
<polygon fill="white" stroke="transparent" points="-4,4 -4,-169.8 274,-169.8 274,4 -4,4"/>
<text text-anchor="middle" x="135" y="-8.2" font-family="sans-serif" font-size="14.00">dependencies</text>
<g id="clust1" class="cluster">
<title>cluster_ProductCategoriesModule</title>
<polygon fill="none" stroke="black" stroke-dasharray="1,5" points="8,-32.8 8,-157.8 262,-157.8 262,-32.8 8,-32.8"/>
</g>
<g id="clust6" class="cluster">
<title>cluster_ProductCategoriesModule_providers</title>
<polygon fill="none" stroke="black" points="16,-40.8 16,-92.8 254,-92.8 254,-40.8 16,-40.8"/>
</g>
<!-- ProductCategoriesService -->
<g id="node1" class="node">
<title>ProductCategoriesService</title>
<ellipse fill="#fdb462" stroke="black" cx="135" cy="-66.8" rx="111.15" ry="18"/>
<text text-anchor="middle" x="135" y="-62.6" font-family="Times,serif" font-size="14.00">ProductCategoriesService</text>
</g>
<!-- ProductCategoriesModule -->
<g id="node2" class="node">
<title>ProductCategoriesModule</title>
<polygon fill="#8dd3c7" stroke="black" points="216.47,-149.8 213.47,-153.8 192.47,-153.8 189.47,-149.8 53.53,-149.8 53.53,-113.8 216.47,-113.8 216.47,-149.8"/>
<text text-anchor="middle" x="135" y="-127.6" font-family="Times,serif" font-size="14.00">ProductCategoriesModule</text>
</g>
<!-- ProductCategoriesService&#45;&gt;ProductCategoriesModule -->
<g id="edge1" class="edge">
<title>ProductCategoriesService&#45;&gt;ProductCategoriesModule</title>
<path fill="none" stroke="black" d="M135,-84.91C135,-84.91 135,-103.79 135,-103.79"/>
<polygon fill="black" stroke="black" points="131.5,-103.79 135,-113.79 138.5,-103.79 131.5,-103.79"/>
</g>
</g>
</svg>
