<?xml version="1.0" encoding="UTF-8" standalone="no"?>
<!DOCTYPE svg PUBLIC "-//W3C//DTD SVG 1.1//EN"
 "http://www.w3.org/Graphics/SVG/1.1/DTD/svg11.dtd">
<!-- Generated by graphviz version 2.47.3 (20210619.1520)
 -->
<!-- Title: dependencies Pages: 1 -->
<svg width="424pt" height="174pt"
 viewBox="0.00 0.00 424.00 173.80" xmlns="http://www.w3.org/2000/svg" xmlns:xlink="http://www.w3.org/1999/xlink">
<g id="graph0" class="graph" transform="scale(1 1) rotate(0) translate(4 169.8)">
<title>dependencies</title>
<polygon fill="white" stroke="transparent" points="-4,4 -4,-169.8 420,-169.8 420,4 -4,4"/>
<text text-anchor="middle" x="208" y="-8.2" font-family="sans-serif" font-size="14.00">dependencies</text>
<g id="clust1" class="cluster">
<title>cluster_HealthModule</title>
<polygon fill="none" stroke="black" stroke-dasharray="1,5" points="8,-32.8 8,-157.8 408,-157.8 408,-32.8 8,-32.8"/>
</g>
<g id="clust6" class="cluster">
<title>cluster_HealthModule_providers</title>
<polygon fill="none" stroke="black" points="138,-40.8 138,-92.8 400,-92.8 400,-40.8 138,-40.8"/>
</g>
<g id="clust3" class="cluster">
<title>cluster_HealthModule_imports</title>
<polygon fill="none" stroke="black" points="16,-40.8 16,-92.8 130,-92.8 130,-40.8 16,-40.8"/>
</g>
<!-- SearchModule -->
<g id="node1" class="node">
<title>SearchModule</title>
<polygon fill="#8dd3c7" stroke="black" points="121.64,-84.8 118.64,-88.8 97.64,-88.8 94.64,-84.8 24.36,-84.8 24.36,-48.8 121.64,-48.8 121.64,-84.8"/>
<text text-anchor="middle" x="73" y="-62.6" font-family="Times,serif" font-size="14.00">SearchModule</text>
</g>
<!-- HealthModule -->
<g id="node2" class="node">
<title>HealthModule</title>
<polygon fill="#8dd3c7" stroke="black" points="219.37,-149.8 216.37,-153.8 195.37,-153.8 192.37,-149.8 122.63,-149.8 122.63,-113.8 219.37,-113.8 219.37,-149.8"/>
<text text-anchor="middle" x="171" y="-127.6" font-family="Times,serif" font-size="14.00">HealthModule</text>
</g>
<!-- SearchModule&#45;&gt;HealthModule -->
<g id="edge1" class="edge">
<title>SearchModule&#45;&gt;HealthModule</title>
<path fill="none" stroke="black" d="M121.76,-66.8C129.22,-66.8 134.5,-66.8 134.5,-66.8 134.5,-66.8 134.5,-103.69 134.5,-103.69"/>
<polygon fill="black" stroke="black" points="131,-103.69 134.5,-113.69 138,-103.69 131,-103.69"/>
</g>
<!-- ElasticsearchHealthIndicator -->
<g id="node3" class="node">
<title>ElasticsearchHealthIndicator</title>
<ellipse fill="#fdb462" stroke="black" cx="269" cy="-66.8" rx="122.64" ry="18"/>
<text text-anchor="middle" x="269" y="-62.6" font-family="Times,serif" font-size="14.00">ElasticsearchHealthIndicator</text>
</g>
<!-- ElasticsearchHealthIndicator&#45;&gt;HealthModule -->
<g id="edge2" class="edge">
<title>ElasticsearchHealthIndicator&#45;&gt;HealthModule</title>
<path fill="none" stroke="black" d="M182.93,-79.64C182.93,-79.64 182.93,-103.32 182.93,-103.32"/>
<polygon fill="black" stroke="black" points="179.43,-103.32 182.93,-113.32 186.43,-103.32 179.43,-103.32"/>
</g>
</g>
</svg>
