<?xml version="1.0" encoding="UTF-8" standalone="no"?>
<!DOCTYPE svg PUBLIC "-//W3C//DTD SVG 1.1//EN"
 "http://www.w3.org/Graphics/SVG/1.1/DTD/svg11.dtd">
<!-- Generated by graphviz version 2.47.3 (20210619.1520)
 -->
<!-- Title: dependencies Pages: 1 -->
<svg width="148pt" height="174pt"
 viewBox="0.00 0.00 148.00 173.80" xmlns="http://www.w3.org/2000/svg" xmlns:xlink="http://www.w3.org/1999/xlink">
<g id="graph0" class="graph" transform="scale(1 1) rotate(0) translate(4 169.8)">
<title>dependencies</title>
<polygon fill="white" stroke="transparent" points="-4,4 -4,-169.8 144,-169.8 144,4 -4,4"/>
<text text-anchor="middle" x="70" y="-8.2" font-family="sans-serif" font-size="14.00">dependencies</text>
<g id="clust1" class="cluster">
<title>cluster_ChargeModule</title>
<polygon fill="none" stroke="black" stroke-dasharray="1,5" points="8,-32.8 8,-157.8 132,-157.8 132,-32.8 8,-32.8"/>
</g>
<g id="clust3" class="cluster">
<title>cluster_ChargeModule_imports</title>
<polygon fill="none" stroke="black" points="16,-40.8 16,-92.8 124,-92.8 124,-40.8 16,-40.8"/>
</g>
<!-- StripeModule -->
<g id="node1" class="node">
<title>StripeModule</title>
<polygon fill="#8dd3c7" stroke="black" points="116.49,-84.8 113.49,-88.8 92.49,-88.8 89.49,-84.8 23.51,-84.8 23.51,-48.8 116.49,-48.8 116.49,-84.8"/>
<text text-anchor="middle" x="70" y="-62.6" font-family="Times,serif" font-size="14.00">StripeModule</text>
</g>
<!-- ChargeModule -->
<g id="node2" class="node">
<title>ChargeModule</title>
<polygon fill="#8dd3c7" stroke="black" points="119.98,-149.8 116.98,-153.8 95.98,-153.8 92.98,-149.8 20.02,-149.8 20.02,-113.8 119.98,-113.8 119.98,-149.8"/>
<text text-anchor="middle" x="70" y="-127.6" font-family="Times,serif" font-size="14.00">ChargeModule</text>
</g>
<!-- StripeModule&#45;&gt;ChargeModule -->
<g id="edge1" class="edge">
<title>StripeModule&#45;&gt;ChargeModule</title>
<path fill="none" stroke="black" d="M70,-84.91C70,-84.91 70,-103.79 70,-103.79"/>
<polygon fill="black" stroke="black" points="66.5,-103.79 70,-113.79 73.5,-103.79 66.5,-103.79"/>
</g>
</g>
</svg>
