<?xml version="1.0" encoding="UTF-8" standalone="no"?>
<!DOCTYPE svg PUBLIC "-//W3C//DTD SVG 1.1//EN"
 "http://www.w3.org/Graphics/SVG/1.1/DTD/svg11.dtd">
<!-- Generated by graphviz version 2.47.3 (20210619.1520)
 -->
<!-- Title: dependencies Pages: 1 -->
<svg width="584pt" height="174pt"
 viewBox="0.00 0.00 584.00 173.80" xmlns="http://www.w3.org/2000/svg" xmlns:xlink="http://www.w3.org/1999/xlink">
<g id="graph0" class="graph" transform="scale(1 1) rotate(0) translate(4 169.8)">
<title>dependencies</title>
<polygon fill="white" stroke="transparent" points="-4,4 -4,-169.8 580,-169.8 580,4 -4,4"/>
<text text-anchor="middle" x="288" y="-8.2" font-family="sans-serif" font-size="14.00">dependencies</text>
<g id="clust1" class="cluster">
<title>cluster_GoogleAuthenticationModule</title>
<polygon fill="none" stroke="black" stroke-dasharray="1,5" points="8,-32.8 8,-157.8 568,-157.8 568,-32.8 8,-32.8"/>
</g>
<g id="clust6" class="cluster">
<title>cluster_GoogleAuthenticationModule_providers</title>
<polygon fill="none" stroke="black" points="292,-40.8 292,-92.8 560,-92.8 560,-40.8 292,-40.8"/>
</g>
<g id="clust3" class="cluster">
<title>cluster_GoogleAuthenticationModule_imports</title>
<polygon fill="none" stroke="black" points="16,-40.8 16,-92.8 284,-92.8 284,-40.8 16,-40.8"/>
</g>
<!-- AuthenticationModule -->
<g id="node1" class="node">
<title>AuthenticationModule</title>
<polygon fill="#8dd3c7" stroke="black" points="276.25,-84.8 273.25,-88.8 252.25,-88.8 249.25,-84.8 133.75,-84.8 133.75,-48.8 276.25,-48.8 276.25,-84.8"/>
<text text-anchor="middle" x="205" y="-62.6" font-family="Times,serif" font-size="14.00">AuthenticationModule</text>
</g>
<!-- GoogleAuthenticationModule -->
<g id="node3" class="node">
<title>GoogleAuthenticationModule</title>
<polygon fill="#8dd3c7" stroke="black" points="296.97,-149.8 293.97,-153.8 272.97,-153.8 269.97,-149.8 113.03,-149.8 113.03,-113.8 296.97,-113.8 296.97,-149.8"/>
<text text-anchor="middle" x="205" y="-127.6" font-family="Times,serif" font-size="14.00">GoogleAuthenticationModule</text>
</g>
<!-- AuthenticationModule&#45;&gt;GoogleAuthenticationModule -->
<g id="edge1" class="edge">
<title>AuthenticationModule&#45;&gt;GoogleAuthenticationModule</title>
<path fill="none" stroke="black" d="M205,-84.91C205,-84.91 205,-103.79 205,-103.79"/>
<polygon fill="black" stroke="black" points="201.5,-103.79 205,-113.79 208.5,-103.79 201.5,-103.79"/>
</g>
<!-- UsersModule -->
<g id="node2" class="node">
<title>UsersModule</title>
<polygon fill="#8dd3c7" stroke="black" points="115.92,-84.8 112.92,-88.8 91.92,-88.8 88.92,-84.8 24.08,-84.8 24.08,-48.8 115.92,-48.8 115.92,-84.8"/>
<text text-anchor="middle" x="70" y="-62.6" font-family="Times,serif" font-size="14.00">UsersModule</text>
</g>
<!-- UsersModule&#45;&gt;GoogleAuthenticationModule -->
<g id="edge2" class="edge">
<title>UsersModule&#45;&gt;GoogleAuthenticationModule</title>
<path fill="none" stroke="black" d="M116.13,-66.8C121.25,-66.8 124.67,-66.8 124.67,-66.8 124.67,-66.8 124.67,-103.69 124.67,-103.69"/>
<polygon fill="black" stroke="black" points="121.17,-103.69 124.67,-113.69 128.17,-103.69 121.17,-103.69"/>
</g>
<!-- GoogleAuthenticationService -->
<g id="node4" class="node">
<title>GoogleAuthenticationService</title>
<ellipse fill="#fdb462" stroke="black" cx="426" cy="-66.8" rx="125.62" ry="18"/>
<text text-anchor="middle" x="426" y="-62.6" font-family="Times,serif" font-size="14.00">GoogleAuthenticationService</text>
</g>
<!-- GoogleAuthenticationService&#45;&gt;GoogleAuthenticationModule -->
<g id="edge3" class="edge">
<title>GoogleAuthenticationService&#45;&gt;GoogleAuthenticationModule</title>
<path fill="none" stroke="black" d="M300.04,-66.8C291.78,-66.8 286.68,-66.8 286.68,-66.8 286.68,-66.8 286.68,-103.69 286.68,-103.69"/>
<polygon fill="black" stroke="black" points="283.18,-103.69 286.68,-113.69 290.18,-103.69 283.18,-103.69"/>
</g>
</g>
</svg>
